<svg xmlns="http://www.w3.org/2000/svg" viewBox="-2.5 -5.5 60 60" fill="none" role="img" aria-label="eUnionX">
  <path d="M18.3918 1.09285C18.7894 0.31181 19.6491 -0.119071 20.5129 0.0293756L53.4651 5.69246C54.7647 5.91597 55.4962 7.31383 54.9387 8.50887L46.2033 27.2247L53.3362 40.6641C54.1441 42.1866 52.7764 43.9498 51.1008 43.546L38.7014 40.5577L35.7151 46.629C35.3092 47.4538 34.3936 47.8959 33.4953 47.7003L2.57639 40.9639C1.33616 40.6937 0.657522 39.3511 1.17599 38.1925L8.81564 21.1221L2.63889 8.42098C1.92397 6.95081 3.17899 5.29042 4.7883 5.57723L15.1682 7.42879L18.3918 1.09285ZM39.6067 38.7179L51.5695 41.6016L44.6252 28.5186L39.6067 38.7179ZM17.2248 7.79598L35.3059 11.0216C35.8988 11.1273 36.4125 11.4947 36.7043 12.0216L44.51 26.1212L53.1262 7.66316L20.174 2.00008L17.2248 7.79598Z" stroke="#2DD4BF" stroke-width="2.5" stroke-linecap="round" stroke-linejoin="round"/>
</svg>
